HIERARCHY
ROOT Hips
{
	OFFSET 0.00000 0.00000 0.00000
	CHANNELS 6 Xposition Yposition Zposition Zrotation Yrotation Xrotation 
	JOINT LHipJoint
	{
		OFFSET 0 0 0
		CHANNELS 3 Zrotation Yrotation Xrotation
		JOINT LeftHip
		{
			OFFSET 1.36306 -1.79463 0.83929
			CHANNELS 3 Zrotation Yrotation Xrotation
			JOINT LeftKnee
			{
				OFFSET 2.44811 -6.72613 0.00000
				CHANNELS 3 Zrotation Yrotation Xrotation
				JOINT LeftAnkle
				{
					OFFSET 2.56220 -7.03959 0.00000
					CHANNELS 3 Zrotation Yrotation Xrotation
					JOINT LeftToe
					{
						OFFSET 0.15764 -0.43311 2.32255
						CHANNELS 3 Zrotation Yrotation Xrotation
						End Site
						{
							OFFSET 0.00000 -0.00000 1.18966
						}
					}
				}
			}
		}
	}
	JOINT RHipJoint
	{
		OFFSET 0 0 0
		CHANNELS 3 Zrotation Yrotation Xrotation
		JOINT RightHip
		{
			OFFSET -1.30552 -1.79463 0.83929
			CHANNELS 3 Zrotation Yrotation Xrotation
			JOINT RightKnee
			{
				OFFSET -2.54253 -6.98555 0.00000
				CHANNELS 3 Zrotation Yrotation Xrotation
				JOINT RightAnkle
				{
					OFFSET -2.56826 -7.05623 0.00000
					CHANNELS 3 Zrotation Yrotation Xrotation
					JOINT RightToe
					{
						OFFSET -0.16473 -0.45259 2.36315
						CHANNELS 3 Zrotation Yrotation Xrotation
						End Site
						{
							OFFSET -0.00000 -0.00000 1.21082
						}
					}
				}
			}
		}
	}
	JOINT lowerback
	{
		OFFSET 0 0 0
		CHANNELS 3 Zrotation Yrotation Xrotation
		JOINT Chest
		{
			OFFSET 0.02827 2.03559 -0.19338
			CHANNELS 3 Zrotation Yrotation Xrotation
			JOINT Chest2
			{
				OFFSET 0.05672 2.04885 -0.04275
				CHANNELS 3 Zrotation Yrotation Xrotation
				JOINT lowerneck
				{
					OFFSET 0 0 0
					CHANNELS 3 Zrotation Yrotation Xrotation
					JOINT Neck
					{
						OFFSET -0.05417 1.74624 0.17202
						CHANNELS 3 Zrotation Yrotation Xrotation
						JOINT Head
						{
							OFFSET 0.10407 1.76136 -0.12397
							CHANNELS 3 Zrotation Yrotation Xrotation
							End Site
							{
								OFFSET 0.03720 1.77044 -0.06241
							}
						}
					}
				}
				JOINT LeftCollar
				{
					OFFSET 0 0 0
					CHANNELS 3 Zrotation Yrotation Xrotation
					JOINT LeftShoulder
					{
						OFFSET 3.36241 1.20089 -0.31121
CHANNELS 3 Zrotation Xrotation Yrotation
						JOINT LeftElbow
						{
OFFSET 0 -4.983000 -0.000000
CHANNELS 3 Zrotation Xrotation Yrotation
							JOINT LeftWrist
							{
OFFSET 0 -3.483560 -0.000000
CHANNELS 3 Zrotation Xrotation Yrotation
								JOINT lhand
								{
									OFFSET 0 0 0
CHANNELS 3 Zrotation Xrotation Yrotation
									JOINT LFingers
									{
OFFSET 0 -0.715260 -0.000000
CHANNELS 3 Zrotation Xrotation Yrotation
										End Site
										{
OFFSET 0 -0.576660 -0.000000
										}
									}
								}
								JOINT LThumb
								{
OFFSET 0 0.000000 0.000000
CHANNELS 3 Zrotation Xrotation Yrotation
									End Site
									{
OFFSET 0 -0.585470 0.585470
									}
								}
							}
						}
					}
				}
				JOINT RightCollar
				{
					OFFSET 0 0 0
					CHANNELS 3 Zrotation Yrotation Xrotation
					JOINT RightShoulder
					{
						OFFSET -3.13660 1.37405 -0.40465
CHANNELS 3 Zrotation Xrotation Yrotation
						JOINT RightElbow
						{
OFFSET 0 -5.241900 -0.000000
CHANNELS 3 Zrotation Xrotation Yrotation
							JOINT RightWrist
							{
OFFSET 0 -3.444170 -0.000000
CHANNELS 3 Zrotation Xrotation Yrotation
								JOINT rhand
								{
									OFFSET 0 0 0
CHANNELS 3 Zrotation Xrotation Yrotation
									JOINT RFingers
									{
OFFSET 0 -0.622530 -0.000000
CHANNELS 3 Zrotation Xrotation Yrotation
										End Site
										{
OFFSET 0 -0.501900 -0.000000
										}
									}
								}
								JOINT RThumb
								{
OFFSET 0 0.000000 0.000000
CHANNELS 3 Zrotation Xrotation Yrotation
									End Site
									{
OFFSET 0 -0.509560 0.509560
									}
								}
							}
						}
					}
				}
			}
		}
	}
}
MOTION
Frames: 9
Frame Time: 0.008333333333333333
5.583009 17.670729 -17.189238 165.467434 -121.123791 -530.312257 0.000000 0.000000 0.000000 -1.118872 -7.085936 -23.929737 8.990385 16.800791 56.055787 -1.493625 -23.379006 -2.245821 0.465050 -4.364976 -12.107179 0.000000 0.000000 0.000000 23.570786 -2.058093 -5.445952 -1.970657 -8.804761 25.186377 -0.576673 -3.312359 -15.933508 -0.030540 1.126799 -3.097835 1.352378 4.282236 21.157216 8.217041 7.040638 -1.230908 6.316502 3.500831 -14.344978 -4.615833 3.748255 -3.220046 -3.775597 5.376093 4.008360 -0.276602 2.509862 1.777383 0.000000 0.000000 0.000000 36.591558 -29.501127 -0.842114 52.615973 -53.993826 28.278089 31.946203 15.607478 7.052936 0.000000 0.000000 0.000000 -7.125000 0.000000 0.000000 3.754337 21.691048 2.105416 0.000000 0.000000 0.000000 -19.798731 -14.842060 36.778838 -75.003713 -59.132896 -47.050704 -13.011184 11.248095 13.060076 0.000000 0.000000 0.000000 7.125000 0.000000 0.000000 12.959434 42.994670 0.653177
5.135240 17.582266 -17.179417 164.743472 -126.548364 -530.189264 0.000000 0.000000 0.000000 -0.446024 -3.954738 -27.992305 6.908346 15.252474 48.523648 -0.771068 -20.308835 -6.828142 1.168156 -6.860596 -19.302992 0.000000 0.000000 0.000000 26.368290 -4.154310 -3.883665 -1.930910 -8.720566 24.925075 -0.544880 -7.268435 -18.459081 -0.038918 1.271947 -3.497422 2.708209 4.589501 21.929776 8.545942 7.982178 -1.820221 5.574540 3.837078 -15.493924 -3.597207 2.566315 -5.225065 -4.421241 3.986540 5.740441 -0.643853 1.736548 2.765332 0.000000 0.000000 0.000000 43.876772 -39.858432 1.155528 40.600808 -48.416045 18.889259 29.973319 13.781213 6.822087 0.000000 0.000000 0.000000 -7.125000 0.000000 0.000000 2.338984 22.117885 1.288917 0.000000 0.000000 0.000000 -21.330134 -22.365233 40.997655 -77.083264 -59.360031 -48.837870 -14.403841 12.086429 17.875990 0.000000 0.000000 0.000000 7.125000 0.000000 0.000000 13.133347 47.951975 -0.977907
4.706401 17.526855 -17.140947 163.541446 -131.828698 -528.960023 0.000000 0.000000 0.000000 -0.987077 -0.344037 -32.329576 4.704433 13.041280 39.525979 -0.167873 -14.130125 -7.808605 1.087465 -6.627345 -18.616109 0.000000 0.000000 0.000000 29.957756 -4.756653 -2.861262 -1.827847 -8.497790 24.236680 -0.513385 -10.614287 -21.260644 -0.006220 -0.509077 1.398790 3.930272 4.671281 22.219015 9.259798 8.688531 -2.748385 5.488043 4.091246 -16.852335 -5.437889 1.913797 -4.290808 -3.223295 3.081025 5.216628 0.003960 1.317341 2.354419 0.000000 0.000000 0.000000 47.965157 -47.584862 2.725340 31.638803 -42.254328 12.498307 29.534101 13.609214 6.682693 0.000000 0.000000 0.000000 -7.125000 0.000000 0.000000 2.028891 22.311830 1.107143 0.000000 0.000000 0.000000 -22.802652 -31.162024 43.329888 -80.987030 -59.690772 -52.202638 -2.756949 15.451541 21.934784 0.000000 0.000000 0.000000 7.125000 0.000000 0.000000 25.667348 50.089458 -3.424329
4.225205 17.513581 -16.949213 167.638442 -135.803027 -532.521705 0.000000 0.000000 0.000000 -7.220907 2.271407 -32.922052 2.765662 10.303619 29.967497 0.294512 -4.856873 -9.765532 1.502369 -7.739036 -21.925703 0.000000 0.000000 0.000000 28.631128 -7.027589 -1.116402 -1.786374 -8.406063 23.954514 -0.487423 -13.226783 -23.781359 -0.005391 -0.474851 1.304813 1.545114 4.756872 21.374655 8.568852 7.952364 -2.159693 6.308360 3.962386 -15.751422 -4.991115 1.579267 -7.418795 -2.994743 2.852321 6.080047 0.036938 1.162908 3.242794 0.000000 0.000000 0.000000 54.886885 -54.384916 7.358470 24.582281 -35.771557 8.045409 24.349410 14.626143 6.764299 0.000000 0.000000 0.000000 -7.125000 0.000000 0.000000 -1.772571 22.561936 -0.955341 0.000000 0.000000 0.000000 -22.706944 -41.588290 45.628735 -77.332448 -59.382603 -49.052464 -8.999586 13.498778 18.893085 0.000000 0.000000 0.000000 7.125000 0.000000 0.000000 18.514174 48.186132 -1.510451
3.822448 17.442911 -16.677223 167.364149 -141.139898 -532.828461 0.000000 0.000000 0.000000 -7.030153 -5.425412 -30.517391 2.315664 9.494697 27.355526 0.213236 8.509744 -15.585064 1.321354 -7.245932 -20.461006 0.000000 0.000000 0.000000 30.645027 -9.356094 -0.429983 -1.866551 -8.581997 24.496574 -0.460884 -15.691225 -26.351598 -0.053530 -1.492232 4.104253 3.893400 4.184399 20.141320 8.138637 7.571992 -1.861758 4.634941 3.566178 -14.205079 -5.339926 0.427788 -7.193211 -1.698745 1.189379 4.532553 0.432011 0.428783 2.678609 0.000000 0.000000 0.000000 58.169499 -60.882457 8.739470 20.274641 -30.971069 5.672334 16.492871 16.867043 6.175419 0.000000 0.000000 0.000000 -7.125000 0.000000 0.000000 -7.558735 23.551469 -3.943255 0.000000 0.000000 0.000000 -24.360014 -50.060547 44.994197 -72.699321 -58.837273 -45.075813 -19.036189 12.652193 17.341660 0.000000 0.000000 0.000000 7.125000 0.000000 0.000000 8.613611 48.069740 -0.658625
3.430960 17.436943 -16.385254 168.727890 -145.873147 -534.901324 0.000000 0.000000 0.000000 -9.029452 -7.870719 -28.279250 2.364307 9.586942 27.649221 0.097316 7.906025 -13.109461 0.107994 -2.028848 -5.587438 0.000000 0.000000 0.000000 30.543633 -11.775500 -2.511297 -2.941010 -10.597380 30.935242 0.009092 -18.589368 -26.237926 -0.017185 0.827490 -2.274374 4.352964 3.637020 19.458067 7.021986 6.636199 -0.891216 3.409619 3.070919 -12.368489 -5.353100 -0.143979 -8.155870 -0.097100 0.391089 4.288006 0.923607 0.092958 2.796174 0.000000 0.000000 0.000000 59.888719 -65.815794 8.628618 18.411993 -28.681500 4.745315 7.940575 19.449175 2.760664 0.000000 0.000000 0.000000 -7.125000 0.000000 0.000000 -14.190450 27.108195 -6.347854 0.000000 0.000000 0.000000 -26.730469 -58.822738 41.550702 -66.147841 -57.735154 -39.500733 -20.654595 13.507721 17.034127 0.000000 0.000000 0.000000 7.125000 0.000000 0.000000 6.994784 47.985463 -0.517117
3.048056 17.309263 -16.089388 171.070466 -150.435798 -538.467419 0.000000 0.000000 0.000000 -12.347422 -4.331851 -27.101660 2.262447 9.392177 27.030321 0.008174 3.288426 -5.148111 0.604172 -4.968410 -13.819853 0.000000 0.000000 0.000000 28.275053 -12.347391 -9.377869 -6.779628 -15.133802 48.018393 1.262786 -22.506415 -20.775049 -0.314589 3.605570 -9.969568 3.674746 3.306552 20.243663 5.652020 5.830616 0.299054 2.459257 2.697420 -11.309339 -4.952069 -0.906072 -7.907536 1.114431 -0.765352 2.846484 1.184004 -0.409586 2.305915 0.000000 0.000000 0.000000 52.987111 -68.656019 1.449930 20.132632 -30.799215 5.600309 18.112068 24.545855 2.931971 0.000000 0.000000 0.000000 -7.125000 0.000000 0.000000 -6.479406 26.884299 -2.873174 0.000000 0.000000 0.000000 -32.413228 -64.921803 34.610035 -57.788776 -55.687280 -32.508714 -27.207069 17.847155 17.826357 0.000000 0.000000 0.000000 7.125000 0.000000 0.000000 0.800839 49.861965 -0.081279
2.726716 17.171086 -15.783161 174.209067 -153.839351 -542.421693 0.000000 0.000000 0.000000 -16.077374 -1.706049 -26.674976 2.804828 10.371252 30.188465 0.019706 -2.179588 -2.737245 0.532259 -4.673856 -12.980884 0.000000 0.000000 0.000000 23.541837 -10.475393 -19.023720 -12.690559 -18.660875 68.154902 1.940929 -23.814982 -11.119977 -1.101918 -6.544656 18.419722 2.523603 3.509499 21.720485 4.078991 5.627373 1.659459 1.371346 2.617261 -10.513296 -5.552498 -1.685387 -7.674990 3.281066 -1.856565 2.218077 1.950857 -0.890197 2.141772 0.000000 0.000000 0.000000 41.828671 -70.626794 -4.708715 26.913026 -38.094641 9.446019 15.842612 26.198634 3.057096 0.000000 0.000000 0.000000 -7.125000 0.000000 0.000000 -8.200456 26.781083 -3.660742 0.000000 0.000000 0.000000 -41.384508 -69.882544 23.024502 -49.657985 -52.852973 -25.902281 -28.692450 19.745930 17.574658 0.000000 0.000000 0.000000 7.125000 0.000000 0.000000 -0.719535 49.835228 0.096878
2.422432 16.941710 -15.545571 174.450821 -156.736038 -544.896272 0.000000 0.000000 0.000000 -15.997639 -2.737022 -26.919468 4.225181 12.453953 37.357843 0.075783 -4.337227 -5.374932 0.317704 -3.623080 -10.018665 0.000000 0.000000 0.000000 22.780493 -6.088627 -26.833988 -16.937831 -19.773560 81.014251 1.383801 -20.282152 -8.329470 -1.903131 -8.660857 24.740259 2.974904 3.346353 23.501348 3.645170 5.445029 3.177047 0.638310 2.504010 -9.676180 -6.965148 -2.460787 -7.742801 5.346290 -2.817401 1.111879 2.859953 -1.319825 1.921979 0.000000 0.000000 0.000000 37.957524 -75.045034 -5.086733 28.074131 -39.184294 10.170523 20.062883 28.842322 4.219910 0.000000 0.000000 0.000000 -7.125000 0.000000 0.000000 -4.957526 25.485756 -2.350345 0.000000 0.000000 0.000000 -55.268736 -73.970684 7.921237 -42.408151 -49.433420 -20.250172 -29.914481 24.770851 17.996087 0.000000 0.000000 0.000000 7.125000 0.000000 0.000000 -1.878938 50.515171 0.255642
